# xmcd
#
# Track frame offsets:
#	182
#	17770
#	39582
#	59100
#	74802
#	89797
#	104170
#	126292
#
# Disc length: 1898 seconds
#
# Revision: 1
# Processed by: cddbd v1.4PL0 Copyright (c) Steve Scherf et al.
# Submitted via: audiograbber 1.82.02
#
DISCID=83076808
DTITLE=Climax Blues Band - Gold Plated
DYEAR=1998
DGENRE=
TTITLE0=Together and Free
TTITLE1=Mighty Fire
TTITLE2=Chasing Change
TTITLE3=Berlin Blues
TTITLE4=Couldn't Get It Right
TTITLE5=Rollin' Home
TTITLE6=Sav'ry Gravy
TTITLE7=Extra
EXTD=
EXTT0=
EXTT1=
EXTT2=
EXTT3=
EXTT4=
EXTT5=
EXTT6=
EXTT7=
PLAYORDER=
